PathFileType        4      (X/Y/Z)      C:\Users\pc\Desktop\IMUTRC\Sujet_02\Sujet_02_Tpose.trc         
DataRate	CameraRate	NumFrames	NumMarkers	Units	OrigDataRate	OrigDataStartFrame	OrigNumFrames
60.0	60.0	4	64	mm	60.0	78	155
Frame#	Time	pHipOrigin			pRightASI			pLeftASI			pRightCSI			pLeftCSI			pRightIschialTub			pLeftIschialTub			pSacrum			pL5SpinalProcess			pL3SpinalProcess			pT12SpinalProcess			pIJ			pT4SpinalProcess			pT8SpinalProcess			pPX			pC7SpinalProcess			pTopOfHead			pRightAuricularis			pLeftAuricularis			pBackOfHead			pRightAcromion			pLeftAcromion			pRightArmLatEpicondyle			pRightArmMedEpicondyle			pLeftArmLatEpicondyle			pLeftArmMedEpicondyle			pRightUlnarStyloid			pRightRadialStyloid			pRightOlecranon			pLeftUlnarStyloid			pLeftRadialStyloid			pLeftOlecranon			pRightTopOfHand			pRightPinky			pRightBallHand			pLeftTopOfHand			pLeftPinky			pLeftBallHand			pRightGreaterTrochanter			pRightKneeLatEpicondyle			pRightKneeMedEpicondyle			pRightPatella			pLeftGreaterTrochanter			pLeftKneeLatEpicondyle			pLeftKneeMedEpicondyle			pLeftPatella			pRightTibialTub			pRightLatMalleolus			pRightMedMalleolus			pLeftTibialTub			pLeftLatMalleolus			pLeftMedMalleolus			pRightHeelFoot			pRightFirstMetatarsal			pRightFifthMetatarsal			pRightPivotFoot			pRightHeelCenter			pRightToe			pLeftHeelFoot			pLeftFirstMetatarsal			pLeftFifthMetatarsal			pLeftPivotFoot			pLeftHeelCenter			pLeftToe			
		X1	Y1	Z1	X2	Y2	Z2	X3	Y3	Z3	X4	Y4	Z4	X5	Y5	Z5	X6	Y6	Z6	X7	Y7	Z7	X8	Y8	Z8	X9	Y9	Z9	X10	Y10	Z10	X11	Y11	Z11	X12	Y12	Z12	X13	Y13	Z13	X14	Y14	Z14	X15	Y15	Z15	X16	Y16	Z16	X17	Y17	Z17	X18	Y18	Z18	X19	Y19	Z19	X20	Y20	Z20	X21	Y21	Z21	X22	Y22	Z22	X23	Y23	Z23	X24	Y24	Z24	X25	Y25	Z25	X26	Y26	Z26	X27	Y27	Z27	X28	Y28	Z28	X29	Y29	Z29	X30	Y30	Z30	X31	Y31	Z31	X32	Y32	Z32	X33	Y33	Z33	X34	Y34	Z34	X35	Y35	Z35	X36	Y36	Z36	X37	Y37	Z37	X38	Y38	Z38	X39	Y39	Z39	X40	Y40	Z40	X41	Y41	Z41	X42	Y42	Z42	X43	Y43	Z43	X44	Y44	Z44	X45	Y45	Z45	X46	Y46	Z46	X47	Y47	Z47	X48	Y48	Z48	X49	Y49	Z49	X50	Y50	Z50	X51	Y51	Z51	X52	Y52	Z52	X53	Y53	Z53	X54	Y54	Z54	X55	Y55	Z55	X56	Y56	Z56	X57	Y57	Z57	X58	Y58	Z58	X59	Y59	Z59	X60	Y60	Z60	X61	Y61	Z61	X62	Y62	Z62	X63	Y63	Z63	X64	Y64	Z64	
78	1.283	-4419.79312	1100.2248000000004	-6471.62597	-4331.77513	1190.5469200000005	-6326.00459	-4368.18048	1222.5744100000004	-6611.02618	-4382.69653	1262.8967800000005	-6337.75568	-4412.41988	1289.1639300000004	-6571.39504	-4470.71452	1032.4832100000006	-6412.64009	-4485.6914	1045.6167900000005	-6529.45978	-4490.53009	1121.1924400000005	-6460.10529	-4452.51185	1218.6573800000006	-6455.03619	-4438.45662	1333.6337500000004	-6452.04082	-4435.00041	1439.6239900000005	-6451.57999	-4259.19486	1645.3833100000004	-6473.23886	-4416.56733	1638.0100800000005	-6459.64446	-4430.62256	1545.1534100000003	-6454.34495	-4273.01967	1517.9646100000004	-6466.32646	-4405.04665	1692.8485100000005	-6461.25736	-4346.29119	1912.8934700000004	-6493.97609	-4325.55397	1833.6312000000005	-6422.08705	-4359.42476	1818.1934900000006	-6546.04955	-4391.45225	1825.3363100000004	-6470.70431	-4387.07439	1684.0927900000004	-6258.95424	-4415.18485	1673.9545900000005	-6664.25171	-4383.8486	1561.2823600000004	-5989.83119	-4333.15762	1523.7249500000005	-6004.80807	-4362.88097	1526.9507400000005	-6920.70202	-4304.35592	1510.3609600000004	-6898.58232	-4288.6878	1489.8541500000003	-5723.4731	-4310.8075	1543.0796800000005	-5714.02615	-4350.89946	1518.1950200000006	-6009.18593	-4267.72016	1444.6930900000004	-7179.68687	-4304.12551	1488.0108400000004	-7194.20293	-4319.10239	1499.3011100000006	-6895.81735	-4291.45276	1519.8079100000002	-5531.5386	-4264.49437	1490.0845600000005	-5613.105	-4276.24546	1510.8217900000004	-5686.37652	-4261.499	1454.3704600000005	-7372.31262	-4236.1535	1438.9327500000004	-7286.36836	-4258.50362	1463.1261800000004	-7216.78346	-4405.9683	1056.4462200000005	-6296.97248	-4443.52572	610.5959600000003	-6326.92625	-4446.06027	609.9047200000003	-6413.56175	-4396.29093	609.6743100000003	-6374.62186	-4451.35978	1081.3308900000004	-6645.12739	-4478.54858	634.0981500000005	-6628.07678	-4457.81136	629.2594600000004	-6544.20624	-4420.25395	631.5636000000004	-6595.12764	-4383.8486	569.8127600000004	-6374.16103	-4454.58557	145.1605500000004	-6334.06907	-4455.96805	144.4693100000004	-6402.5019	-4408.96368	591.0108100000004	-6600.19674	-4493.98629	168.8931500000004	-6638.21498	-4477.62693	165.20653000000038	-6571.85587	-4511.26731	31.797070000000392	-6393.51577	-4326.70604	9.446960000000391	-6396.05032	-4346.98243	0.46083000000038643	-6311.02771	-4312.65081	1.3824800000003887	-6349.27636	-4469.79286	24.42384000000039	-6384.29923	-4230.62358	1.1520700000003876	-6330.38245	-4556.65878	66.1286900000004	-6568.63008	-4385.23108	7.373230000000405	-6610.56535	-4426.2447	7.8340600000004095	-6688.44514	-4384.30943	-0.46082999999959223	-6659.41303	-4520.94468	51.1518100000004	-6587.52399	-4309.88585	0.6912400000004101	-6698.58334	
79	1.3	-4420.02353	1100.2248000000004	-6471.62597	-4332.00555	1190.5469200000005	-6326.00459	-4368.41089	1222.5744100000004	-6611.02618	-4382.69653	1262.8967800000005	-6337.75568	-4412.41988	1289.1639300000004	-6571.39504	-4470.71452	1032.4832100000006	-6412.64009	-4485.6914	1045.6167900000005	-6529.45978	-4490.53009	1121.1924400000005	-6460.10529	-4452.74226	1218.6573800000006	-6455.03619	-4438.45662	1333.6337500000004	-6452.04082	-4435.23083	1439.6239900000005	-6451.57999	-4259.42527	1645.3833100000004	-6473.23886	-4416.79774	1638.0100800000005	-6459.87488	-4430.85297	1545.1534100000003	-6454.57536	-4273.25009	1517.9646100000004	-6466.55687	-4405.27706	1692.8485100000005	-6461.48777	-4346.29119	1912.8934700000004	-6494.2065	-4325.55397	1833.6312000000005	-6422.31746	-4359.42476	1818.1934900000006	-6546.27997	-4391.45225	1825.3363100000004	-6470.70431	-4387.07439	1684.0927900000004	-6259.18466	-4415.41526	1673.9545900000005	-6664.25171	-4383.8486	1561.0519400000005	-5990.06161	-4333.15762	1523.4945300000004	-6005.03849	-4362.88097	1526.7203200000004	-6920.93243	-4304.35592	1510.3609600000004	-6898.58232	-4288.6878	1489.3933200000004	-5723.70352	-4310.8075	1542.8492700000004	-5714.02615	-4350.89946	1518.1950200000006	-6009.41635	-4267.48975	1444.2322600000005	-7179.68687	-4304.12551	1487.7804300000005	-7194.20293	-4319.10239	1499.0706900000005	-6895.81735	-4291.45276	1519.3470900000002	-5531.76901	-4264.49437	1489.6237400000005	-5613.33542	-4276.24546	1510.3609600000004	-5686.60693	-4261.26858	1454.1400500000004	-7372.31262	-4236.1535	1438.4719200000004	-7286.36836	-4258.50362	1462.8957600000006	-7216.78346	-4405.9683	1056.2158100000004	-6296.97248	-4443.52572	610.5959600000003	-6326.92625	-4446.06027	609.9047200000003	-6413.56175	-4396.29093	609.4439000000003	-6374.62186	-4451.59019	1081.3308900000004	-6645.12739	-4478.54858	634.0981500000005	-6628.07678	-4457.81136	629.2594600000004	-6544.20624	-4420.48436	631.5636000000004	-6595.12764	-4383.8486	569.8127600000004	-6374.16103	-4454.58557	145.1605500000004	-6334.06907	-4455.96805	144.4693100000004	-6402.5019	-4408.96368	591.0108100000004	-6600.19674	-4493.98629	168.8931500000004	-6638.21498	-4477.62693	165.20653000000038	-6571.85587	-4511.26731	31.797070000000392	-6393.51577	-4326.70604	9.446960000000391	-6396.05032	-4346.98243	0.46083000000038643	-6311.02771	-4312.65081	1.3824800000003887	-6349.27636	-4469.79286	24.42384000000039	-6384.29923	-4230.62358	1.1520700000003876	-6330.38245	-4556.65878	65.8982800000004	-6568.63008	-4385.23108	7.373230000000405	-6610.56535	-4426.2447	7.8340600000004095	-6688.44514	-4384.30943	-0.46082999999959223	-6659.41303	-4520.94468	51.1518100000004	-6587.52399	-4309.88585	0.6912400000004101	-6698.58334	
80	1.317	-4420.02353	1100.2248000000004	-6471.62597	-4332.00555	1190.5469200000005	-6326.00459	-4368.41089	1222.5744100000004	-6611.02618	-4382.92695	1262.8967800000005	-6337.75568	-4412.6503	1289.1639300000004	-6571.39504	-4470.94493	1032.4832100000006	-6412.64009	-4485.6914	1045.6167900000005	-6529.45978	-4490.7605	1121.1924400000005	-6460.10529	-4452.74226	1218.6573800000006	-6455.03619	-4438.68703	1333.6337500000004	-6452.04082	-4435.46124	1439.6239900000005	-6451.57999	-4259.42527	1645.3833100000004	-6473.46928	-4417.02816	1638.0100800000005	-6459.87488	-4431.08338	1545.1534100000003	-6454.57536	-4273.25009	1517.9646100000004	-6466.55687	-4405.50748	1692.8485100000005	-6461.71819	-4346.29119	1912.8934700000004	-6494.2065	-4325.55397	1833.6312000000005	-6422.54788	-4359.65518	1818.1934900000006	-6546.27997	-4391.68266	1825.5667200000005	-6470.93473	-4387.30481	1684.0927900000004	-6259.18466	-4415.41526	1673.9545900000005	-6664.48213	-4383.8486	1561.0519400000005	-5990.29202	-4333.15762	1523.4945300000004	-6005.03849	-4362.88097	1526.7203200000004	-6920.93243	-4304.35592	1510.1305400000006	-6898.58232	-4288.91821	1488.9325000000003	-5723.93393	-4310.8075	1542.3884400000004	-5714.25656	-4350.89946	1518.1950200000006	-6009.41635	-4267.48975	1444.0018500000006	-7179.68687	-4303.89509	1487.5500100000004	-7194.20293	-4319.10239	1499.0706900000005	-6895.81735	-4291.45276	1518.6558500000003	-5531.76901	-4264.49437	1488.9325000000003	-5613.56583	-4276.24546	1509.9001300000004	-5686.83735	-4261.03817	1453.4488100000005	-7372.31262	-4235.92309	1438.0111000000004	-7286.36836	-4258.27321	1462.4349400000006	-7216.78346	-4405.9683	1056.2158100000004	-6296.97248	-4443.52572	610.5959600000003	-6326.92625	-4446.06027	609.9047200000003	-6413.56175	-4396.29093	609.4439000000003	-6374.62186	-4451.59019	1081.1004800000005	-6645.12739	-4478.54858	633.8677300000005	-6628.07678	-4457.81136	629.2594600000004	-6544.20624	-4420.48436	631.5636000000004	-6595.12764	-4383.8486	569.8127600000004	-6374.16103	-4454.58557	145.1605500000004	-6334.06907	-4455.96805	144.4693100000004	-6402.5019	-4408.96368	591.0108100000004	-6600.19674	-4493.98629	168.8931500000004	-6638.21498	-4477.85734	165.20653000000038	-6571.85587	-4511.26731	31.797070000000392	-6393.51577	-4326.70604	9.446960000000391	-6396.05032	-4346.98243	0.46083000000038643	-6311.02771	-4312.65081	1.3824800000003887	-6349.27636	-4469.79286	24.42384000000039	-6384.29923	-4230.62358	1.1520700000003876	-6330.38245	-4556.65878	65.8982800000004	-6568.63008	-4385.23108	7.373230000000405	-6610.56535	-4426.2447	7.6036500000004095	-6688.44514	-4384.30943	-0.46082999999959223	-6659.41303	-4520.94468	51.1518100000004	-6587.52399	-4309.88585	0.6912400000004101	-6698.58334	
81	1.333	-4420.02353	1100.2248000000004	-6471.62597	-4332.23596	1190.5469200000005	-6326.00459	-4368.64131	1222.5744100000004	-6611.02618	-4382.92695	1262.8967800000005	-6337.75568	-4412.88071	1289.1639300000004	-6571.39504	-4470.94493	1032.2528000000004	-6412.64009	-4485.92181	1045.3863700000004	-6529.45978	-4490.7605	1120.9620200000004	-6460.3357	-4452.97267	1218.6573800000006	-6455.03619	-4438.91745	1333.6337500000004	-6452.04082	-4435.46124	1439.6239900000005	-6451.8104	-4259.65569	1645.3833100000004	-6473.46928	-4417.02816	1638.0100800000005	-6459.87488	-4431.08338	1545.1534100000003	-6454.57536	-4273.4805	1517.7341900000004	-6466.55687	-4405.50748	1692.8485100000005	-6461.71819	-4346.29119	1912.8934700000004	-6494.43691	-4325.78438	1833.6312000000005	-6422.77829	-4359.65518	1817.9630800000004	-6546.51038	-4391.68266	1825.5667200000005	-6471.16514	-4387.30481	1684.0927900000004	-6259.41507	-4415.41526	1673.9545900000005	-6664.48213	-4383.61819	1561.0519400000005	-5990.29202	-4332.9272	1523.4945300000004	-6005.2689	-4362.88097	1526.7203200000004	-6920.93243	-4304.12551	1510.1305400000006	-6898.58232	-4288.91821	1488.4716700000004	-5723.93393	-4310.57709	1541.9276200000004	-5714.25656	-4350.89946	1518.1950200000006	-6009.64676	-4267.48975	1443.5410200000003	-7179.68687	-4303.89509	1487.3196000000005	-7194.20293	-4319.10239	1499.0706900000005	-6896.04777	-4291.45276	1517.9646100000002	-5531.99943	-4264.49437	1488.4716700000004	-5613.79624	-4276.24546	1509.4393000000005	-5686.83735	-4261.03817	1452.9879800000006	-7372.31262	-4235.92309	1437.5502700000004	-7286.13794	-4258.27321	1461.9741100000006	-7216.78346	-4406.19872	1056.2158100000004	-6296.97248	-4443.52572	610.5959600000003	-6326.92625	-4446.06027	609.6743100000003	-6413.56175	-4396.29093	609.4439000000003	-6374.62186	-4451.82061	1081.1004800000005	-6645.12739	-4478.77899	633.8677300000005	-6628.07678	-4458.04177	629.2594600000004	-6544.20624	-4420.48436	631.5636000000004	-6595.12764	-4383.8486	569.8127600000004	-6374.16103	-4454.58557	145.1605500000004	-6334.06907	-4456.19846	144.4693100000004	-6402.5019	-4409.19409	591.0108100000004	-6599.96633	-4494.2167	168.8931500000004	-6638.21498	-4477.85734	165.20653000000038	-6571.85587	-4511.26731	31.56666000000039	-6393.51577	-4326.70604	9.446960000000391	-6396.05032	-4346.98243	0.46083000000038643	-6311.02771	-4312.65081	1.3824800000003887	-6349.27636	-4469.79286	24.42384000000039	-6384.29923	-4230.62358	1.1520700000003876	-6330.38245	-4556.65878	65.8982800000004	-6568.63008	-4385.23108	7.373230000000405	-6610.56535	-4426.2447	7.6036500000004095	-6688.44514	-4384.30943	-0.46082999999959223	-6659.41303	-4520.94468	51.1518100000004	-6587.52399	-4309.88585	0.6912400000004101	-6698.58334	
